<svg width="168" height="68" fill="none" xmlns="http://www.w3.org/2000/svg"><path d="M0 0h168l-13.96 58.77A12 12 0 01142.36 68H25.64a12 12 0 01-11.68-9.23L0 0z" fill="#0B405A"/><path d="M33.42 14.79h-2.98v10.07h-3.47V14.79H24V12.2h9.42v2.58zM40.33 25.08c-.82 0-1.6-.14-2.34-.42a5.66 5.66 0 01-3.3-3.3 7.57 7.57 0 01-.5-2.84c0-1.07.17-2.01.5-2.83a5.61 5.61 0 013.29-3.27 6.61 6.61 0 012.35-.42c.83 0 1.62.14 2.36.42a5.5 5.5 0 013.29 3.27c.32.82.48 1.76.48 2.83s-.17 2.01-.5 2.83a5.82 5.82 0 01-5.63 3.73zm0-2.67c.42 0 .83-.12 1.23-.35.4-.23.73-.63.98-1.2.26-.56.39-1.34.39-2.34 0-1-.13-1.77-.39-2.33a2.47 2.47 0 00-.98-1.17c-.4-.23-.8-.35-1.23-.35-.42 0-.83.12-1.23.35-.4.22-.73.61-.98 1.17a5.65 5.65 0 00-.4 2.33c0 1 .14 1.79.4 2.35.25.56.58.96.98 1.2.4.22.8.34 1.23.34zM51.83 24.86h-3.48V12.2h4.87c.96 0 1.8.2 2.52.58A4.16 4.16 0 0158 16.57a4.41 4.41 0 01-2.26 3.88c-.72.4-1.56.6-2.52.6h-1.39v3.8zm1.04-10.07h-1.04v3.7h1.04c.42 0 .8-.16 1.13-.48.34-.32.51-.8.51-1.44 0-.65-.17-1.1-.5-1.37a1.74 1.74 0 00-1.14-.41z" fill="#fff"/><path d="M75.6 20.08a4.9 4.9 0 01-1.35 3.36c-.45.5-1.02.9-1.72 1.2-.68.3-1.5.44-2.45.44a5.93 5.93 0 01-3.2-.83 5.47 5.47 0 01-2.03-2.32 7.87 7.87 0 01-.7-3.4c0-1.28.23-2.42.7-3.4A5.41 5.41 0 0170.08 12c1.03 0 1.92.17 2.64.52a4.8 4.8 0 012.7 3.2c.11.43.17.86.17 1.27H72.1c0-.18 0-.34-.03-.48a2.2 2.2 0 00-.63-1.34c-.34-.33-.8-.5-1.36-.5-.67 0-1.24.3-1.7.91-.47.6-.7 1.59-.7 2.95 0 1.37.23 2.36.7 2.97.46.6 1.03.91 1.7.91a1.8 1.8 0 001.5-.66c.35-.46.52-1.01.52-1.67h3.5zM76.36 24.86L79.3 12.2h5.52l2.93 12.65h-3.55l-.54-2.66h-3.21l-.55 2.66h-3.55zm4.63-5.26h2.15l-1.07-5.28L81 19.6zM94 25.08a6.8 6.8 0 01-2.53-.45 4.01 4.01 0 01-1.77-1.34 3.67 3.67 0 01-.65-2.21v-.45h3.47v.38c0 .4.12.73.37 1s.63.4 1.14.4c.5 0 .89-.07 1.17-.21a.75.75 0 00.43-.72c0-.25-.14-.47-.4-.69a4.5 4.5 0 00-1.08-.6c-.45-.18-.95-.36-1.5-.54a8.13 8.13 0 01-1.7-.76 4.05 4.05 0 01-1.31-1.24 3.4 3.4 0 01-.51-1.91c0-.79.22-1.45.65-2a4.13 4.13 0 011.76-1.3c.74-.3 1.56-.44 2.46-.44.94 0 1.77.15 2.5.44.75.29 1.33.72 1.76 1.28.43.57.65 1.27.65 2.1v.43h-3.47V16c0-.38-.1-.69-.32-.95-.2-.25-.57-.38-1.08-.38-.5 0-.9.09-1.17.27a.9.9 0 00-.4.8c0 .36.25.67.75.92.51.24 1.15.49 1.92.76s1.44.56 2.02.89c.58.32 1.03.72 1.35 1.2.33.5.5 1.12.5 1.88 0 .8-.22 1.47-.65 2.02-.43.55-1.03.97-1.79 1.25-.75.29-1.6.43-2.57.43zM100.86 24.86V12.2h3.43v12.65h-3.43zM109.86 24.86h-3.38V12.2h5.3l2.83 9.39v-9.39H118v12.65h-5.34l-2.8-9.2v9.2zM126.02 25.08c-.82 0-1.6-.14-2.34-.42a5.66 5.66 0 01-3.3-3.3 7.57 7.57 0 01-.49-2.84c0-1.07.16-2.01.48-2.83a5.6 5.6 0 013.29-3.27 6.61 6.61 0 012.36-.42c.83 0 1.62.14 2.36.42a5.5 5.5 0 013.29 3.27c.32.82.48 1.76.48 2.83s-.16 2.01-.49 2.83a5.83 5.83 0 01-5.64 3.73zm0-2.67c.43 0 .84-.12 1.23-.35.4-.23.73-.63.98-1.2.26-.56.4-1.34.4-2.34 0-1-.14-1.77-.4-2.33a2.47 2.47 0 00-.98-1.17c-.4-.23-.8-.35-1.23-.35-.42 0-.83.12-1.23.35-.4.22-.72.61-.98 1.17a5.66 5.66 0 00-.39 2.33c0 1 .13 1.79.39 2.35s.58.96.98 1.2c.4.22.81.34 1.23.34zM138.65 25.08a6.8 6.8 0 01-2.53-.45 4.01 4.01 0 01-1.77-1.34 3.67 3.67 0 01-.65-2.21v-.45h3.47v.38c0 .4.13.73.37 1 .26.27.64.4 1.15.4.5 0 .88-.07 1.16-.21a.75.75 0 00.43-.72c0-.25-.13-.47-.4-.69a4.48 4.48 0 00-1.08-.6 16.4 16.4 0 00-1.5-.54 8.14 8.14 0 01-1.7-.76 4.04 4.04 0 01-1.31-1.24 3.4 3.4 0 01-.5-1.91c0-.79.21-1.45.65-2a4.13 4.13 0 011.75-1.3c.74-.3 1.56-.44 2.46-.44.94 0 1.77.15 2.5.44.75.29 1.34.72 1.76 1.28.44.57.65 1.27.65 2.1v.43h-3.47V16c0-.38-.1-.69-.32-.95-.2-.25-.56-.38-1.07-.38-.5 0-.9.09-1.17.27a.9.9 0 00-.4.8c0 .36.24.67.75.92.5.24 1.14.49 1.91.76s1.44.56 2.02.89c.58.32 1.03.72 1.35 1.2.33.5.5 1.12.5 1.88 0 .8-.22 1.47-.65 2.02a4 4 0 01-1.78 1.25c-.75.29-1.61.43-2.58.43z" fill="#FC1E51"/><path d="M35.33 56c-1.5 0-2.94-.26-4.3-.77A10.38 10.38 0 0125 49.16c-.6-1.5-.9-3.23-.9-5.2 0-1.96.29-3.7.88-5.18a10.3 10.3 0 016.03-6c1.36-.52 2.8-.78 4.33-.78 1.53 0 2.97.26 4.33.77a10.1 10.1 0 013.59 2.26c1.04 1.01 1.85 2.26 2.44 3.75.6 1.49.89 3.22.89 5.19 0 1.96-.3 3.69-.9 5.19-.6 1.5-1.43 2.76-2.48 3.77a10.35 10.35 0 01-3.6 2.3c-1.35.51-2.77.77-4.27.77zm0-4.9c.78 0 1.53-.22 2.26-.64a4.6 4.6 0 001.8-2.2c.48-1.04.71-2.47.71-4.3 0-1.83-.23-3.25-.7-4.27a4.53 4.53 0 00-1.8-2.15 4.46 4.46 0 00-2.27-.63c-.77 0-1.52.2-2.26.63a4.53 4.53 0 00-1.8 2.15 10.37 10.37 0 00-.7 4.28c0 1.83.23 3.27.7 4.3a4.73 4.73 0 001.8 2.2c.74.41 1.5.62 2.26.62zM56.27 55.6h-6.2V32.4h9.72L65 49.6V32.4h6.2v23.2h-9.8l-5.12-16.9v16.9zM75.31 55.6V32.4h6.38v18.14H90v5.05H75.31zM93.33 55.6V32.4h6.28v23.2h-6.28zM109.84 55.6h-6.2V32.4h9.72l5.2 17.21V32.4h6.2v23.2h-9.8l-5.12-16.9v16.9zM144 50.87v4.72h-15.12V32.4H144v4.72h-8.7v4.48h6.95v4.72h-6.95v4.56h8.7z" fill="#8BC2DE"/></svg>