<svg width="730" height="322" viewBox="0 0 730 322" fill="none" xmlns="http://www.w3.org/2000/svg">
<path d="M21.1043 27.4521C52.5802 -13.4273 116.071 3.45385 159.333 3.45385C202.596 3.45385 307.571 11.9538 395.191 9.53359C449.707 8.02776 503.802 3.45385 548.606 3.45385C593.411 3.45385 674.542 -12.4512 707.291 30.0822C736.269 67.718 728.367 109.065 728.676 160.922C728.984 212.4 737.093 254.815 709.151 291.105C675.992 334.17 620.956 318.391 575.57 318.391C530.185 318.391 393.383 307.717 312.749 309.677C250.922 311.18 189.886 318.391 146.936 318.391C103.986 318.391 51.3556 335.547 20.1745 295.05C-7.5114 259.093 1.36667 213.865 1.57864 160.922C1.78983 108.176 -7.03889 64.0031 21.1043 27.4521Z" fill="url(#paint0_linear_803:3045)"/>
<path fill-rule="evenodd" clip-rule="evenodd" d="M9.24007 274.019L6.52013 137.059L5.16016 68.5796L34.2439 24.9879L94.4819 5.01255L225.987 5.83551C225.987 5.83551 305.716 9.92534 356.844 9.92534C422.172 9.92534 496.734 4.88786 496.734 4.88786L629.337 2.55615L693.069 34.2649L722.613 68.5796L725.059 137.059L717.473 272.024C717.473 272.024 713.679 284.728 696.911 295.731C679.483 307.169 661.517 318.925 660.729 319.307C660.692 319.325 660.65 319.343 660.605 319.361C658.732 319.756 652.195 320.504 651.354 320.562C640.007 321.339 619.726 321.532 596.598 319.307C592.655 318.927 588.781 318.81 583.772 318.509C582.049 318.405 567.819 318.457 553.927 317.91C542.911 317.476 531.904 316.972 517.795 316.314C497.6 315.372 466.883 313.745 466.091 313.721C435.697 312.773 407.556 309.523 339.925 309.506C289.748 309.494 239.416 314.231 175.032 317.611C148.432 319.007 145.212 317.571 126.223 319.357C97.5761 322.05 74.8185 323.646 57.4009 319.107C54.0571 315.865 9.24007 274.019 9.24007 274.019ZM107.091 181.823C105.902 177.106 105.091 173.889 104.806 172.683C101.54 158.872 109.514 155.146 125.069 147.878C143.357 139.332 172.126 125.89 205.425 85.399C226.887 59.3026 242.37 45.7388 255.305 34.4074C259.006 31.1652 262.499 28.1058 265.863 24.9879C275.745 15.8285 292.983 17.5363 314.399 19.6581C324.934 20.7018 336.48 21.8457 348.659 21.8457C365.613 21.8458 381.084 20.5887 394.564 19.4933C416.915 17.6773 433.793 16.3059 442.884 21.8457C455.668 29.6369 468.776 44.6315 481.467 59.1484C489.98 68.8864 498.305 78.4095 506.218 85.399C521.353 98.7669 538.907 111.447 561.295 126.12C569.693 131.625 576.082 135.364 582.927 139.37C587.501 142.046 592.278 144.842 597.993 148.363C598.178 148.477 598.364 148.591 598.55 148.705C605.953 153.253 613.619 157.963 610.51 175.66C608.744 185.719 605.893 195.846 603.257 205.21C601.139 212.735 599.159 219.767 597.993 225.874C595.899 236.838 587.22 274.74 583.143 292.32L131.912 286.438C124.602 251.3 112.266 202.354 107.091 181.823Z" fill="#301A31"/>
<path fill-rule="evenodd" clip-rule="evenodd" d="M413.793 311.332C541.876 307.855 639.037 291.005 639.037 270.742C639.037 263.224 625.659 256.175 602.289 250.105C554.85 237.783 466.235 229.495 364.747 229.495C256.016 229.495 162.062 239.009 117.688 252.803C100.239 258.227 90.457 264.313 90.457 270.742C90.457 289.617 174.645 305.576 289.72 310.478C290.347 310.45 292.425 310.36 293.114 310.329C296.45 310.178 299.187 310.093 303.694 309.93C317.374 309.328 329.337 309.399 345.766 309.481C372.342 309.613 389.684 310.528 413.793 311.332Z" fill="#68A2BF"/>
<ellipse cx="364.88" cy="251.624" rx="274.29" ry="41.2475" fill="#8BC2DE"/>
<ellipse cx="359.901" cy="251.314" rx="99.655" ry="21.7082" fill="#B9DFF2"/>
<path d="M88.2086 146.163C130.566 131.453 160.774 102.667 179.546 84.3389C196.129 68.1472 216.049 29.3931 226.795 5.87361C224.939 5.78572 205.376 4.88795 205.376 4.88795C205.376 4.88795 145.238 3.17075 143.441 2.99268C83.0537 -2.99246 49.8586 -1.03728 28.3053 19.5515C10.8292 36.2456 1.90161 57.8334 0.506855 98.256C-0.0920306 115.613 1.6048 122.346 1.6048 157.409C1.6048 192.472 -3.43582 232.672 4.34969 262.049C6.83539 271.428 10.7317 282.698 19.8209 294.568C28.6046 306.04 40.2829 314.918 57.4263 319.118C58.4804 318.612 59.2253 318.029 59.5984 317.358C64.4207 308.691 71.2944 300.994 89.4322 298.872C101.704 297.436 111.063 303.835 111.745 291.211C112.716 273.229 107.57 254.455 105.843 243.27C104.461 234.321 93.6428 176.77 88.2086 146.163Z" fill="#0B405A"/>
<path fill-rule="evenodd" clip-rule="evenodd" d="M93.9827 43.3957C97.9873 32.0555 101.825 20.017 104.409 11.7183L105.838 12.1629C103.252 20.4681 99.4084 32.5272 95.3946 43.8936C91.3894 55.2359 87.1897 65.963 83.8878 71.5557C77.2514 82.7962 69.3702 92.6771 62.14 100.309C54.923 107.927 48.3115 113.35 44.2003 115.635L43.4727 114.327C47.3867 112.152 53.8747 106.858 61.0528 99.2805C68.2177 91.7173 76.0272 81.9252 82.5983 70.7953C85.8142 65.3483 89.9697 54.7599 93.9827 43.3957Z" fill="#052C3F"/>
<path fill-rule="evenodd" clip-rule="evenodd" d="M152.155 45.4248C160.034 35.8419 165.924 26.6078 168.466 18.4438L169.896 18.8884C167.268 27.3285 161.233 36.7409 153.312 46.3747C145.381 56.0202 135.517 65.9401 125.169 75.3961C106.521 92.4375 79.2054 107.039 67.29 113.409C65.57 114.328 64.1709 115.076 63.1651 115.635L62.4375 114.327C63.4618 113.758 64.8784 113.001 66.6146 112.072C78.5686 105.68 105.671 91.1872 124.159 74.2919C134.477 64.863 144.286 54.9959 152.155 45.4248Z" fill="#052C3F"/>
<path fill-rule="evenodd" clip-rule="evenodd" d="M42.4469 129.266C42.4469 129.265 42.4469 129.265 43.1885 129.367C43.9302 129.469 43.9302 129.469 43.9301 129.469L43.9215 129.533C43.9157 129.575 43.9071 129.638 43.8958 129.72C43.8732 129.886 43.84 130.13 43.7972 130.446C43.7117 131.079 43.5882 131.999 43.4361 133.147C43.1321 135.444 42.7142 138.655 42.2587 142.311C41.3475 149.626 40.2874 158.713 39.6879 165.827C39.1605 172.086 38.7112 180.123 38.3936 186.6C38.2348 189.837 38.1091 192.683 38.023 194.719C37.98 195.738 37.9469 196.553 37.9246 197.114C37.9134 197.395 37.9049 197.612 37.8992 197.758C37.8964 197.832 37.8943 197.888 37.8928 197.925L37.8907 197.981C37.8907 197.981 37.8907 197.981 37.1426 197.953C36.3945 197.925 36.3945 197.925 36.3945 197.925L36.3967 197.868C36.3981 197.83 36.4003 197.774 36.4031 197.701C36.4088 197.553 36.4173 197.336 36.4285 197.055C36.4509 196.493 36.4841 195.676 36.5271 194.656C36.6133 192.617 36.7392 189.768 36.8981 186.527C37.2159 180.046 37.6663 171.988 38.196 165.701C38.7981 158.556 39.8613 149.444 40.773 142.126C41.229 138.465 41.6474 135.25 41.9519 132.951C42.1041 131.801 42.2278 130.88 42.3135 130.246C42.3563 129.929 42.3897 129.684 42.4123 129.518C42.4236 129.435 42.4323 129.372 42.4381 129.33L42.4469 129.266Z" fill="#052C3F"/>
<path fill-rule="evenodd" clip-rule="evenodd" d="M38.6519 122.34C38.6519 122.34 38.652 122.34 38.5456 121.599C38.4393 120.859 38.4393 120.859 38.4395 120.859L38.4435 120.858L38.4535 120.857C38.4621 120.856 38.4745 120.854 38.4904 120.852C38.5224 120.847 38.5687 120.841 38.6281 120.834C38.7469 120.818 38.918 120.798 39.1306 120.775C39.5553 120.729 40.1477 120.673 40.8197 120.636C42.1431 120.564 43.8524 120.557 45.1939 120.871C46.8757 121.264 47.9837 122.074 48.9882 122.848C49.0515 122.897 49.1144 122.946 49.1769 122.994C50.1091 123.715 50.9636 124.376 52.2159 124.813C53.3239 125.2 54.2747 125.204 55.328 125.208C55.4518 125.208 55.577 125.209 55.704 125.21C56.9099 125.221 58.2172 125.296 59.7099 126.124C61.196 126.949 62.0656 127.971 62.8215 129.026C63.0073 129.286 63.1833 129.542 63.3579 129.796C63.9016 130.587 64.4323 131.36 65.2082 132.154C65.7337 132.691 66.183 133.183 66.5973 133.637C67.9321 135.099 68.9035 136.163 70.8857 137.067C72.3552 137.738 73.6706 137.762 75.1367 137.761C75.1875 137.761 75.2386 137.761 75.2898 137.761C76.7059 137.758 78.275 137.756 80.0291 138.456C82.2216 139.33 84.397 141.173 85.9865 142.736C86.7908 143.527 87.4637 144.265 87.9359 144.806C88.1722 145.076 88.3587 145.298 88.4869 145.453C88.551 145.53 88.6005 145.591 88.6344 145.633C88.6513 145.654 88.6643 145.67 88.6733 145.681L88.6838 145.694L88.6876 145.699L88.6879 145.7C88.688 145.7 88.6881 145.7 88.1008 146.164C87.5135 146.628 87.5135 146.628 87.5135 146.628L87.5133 146.627L87.5115 146.625L87.5035 146.615C87.4961 146.606 87.4848 146.592 87.4696 146.573C87.4391 146.535 87.3932 146.479 87.333 146.406C87.2124 146.26 87.0346 146.049 86.808 145.79C86.3544 145.27 85.7077 144.561 84.9365 143.803C83.3749 142.267 81.3758 140.604 79.474 139.845C77.9918 139.254 76.6765 139.255 75.2272 139.257L75.1382 139.257C73.6639 139.259 72.0558 139.246 70.2637 138.428C67.9809 137.387 66.7697 136.056 65.3875 134.539C64.9941 134.107 64.5869 133.66 64.1372 133.199C63.262 132.304 62.6349 131.39 62.0788 130.579C61.9159 130.342 61.7592 130.114 61.6041 129.897C60.9106 128.929 60.1954 128.105 58.9832 127.432C57.8222 126.788 56.8204 126.716 55.6908 126.706C55.5701 126.705 55.4473 126.705 55.3222 126.705C54.2785 126.703 53.0804 126.7 51.7222 126.226C50.2319 125.706 49.2003 124.906 48.2828 124.195C48.2125 124.14 48.1428 124.086 48.0736 124.033C47.0987 123.281 46.2043 122.644 44.8529 122.328C43.7311 122.066 42.2016 122.059 40.9018 122.13C40.2623 122.166 39.6971 122.218 39.2921 122.262C39.0899 122.284 38.9281 122.304 38.8177 122.318C38.7626 122.325 38.7202 122.331 38.6922 122.334C38.6781 122.336 38.6676 122.338 38.6609 122.339L38.6536 122.34L38.6519 122.34Z" fill="#052C3F"/>
<path d="M143.018 93.9057C139.419 97.6461 118.798 113.327 110.125 118.938C102.736 123.301 88.2376 132.374 90.2241 134.619C92.7073 137.424 108.83 128.073 110.125 127.318C111.421 126.562 138.952 110.486 145.105 105.091C151.259 99.696 165.367 88.1154 169.649 84.8425C173.932 81.5695 183.36 69.4493 180.409 66.3563C176.183 61.926 163.243 72.9379 159.824 76.3186C154.57 81.5148 147.517 89.2302 143.018 93.9057Z" fill="#165777"/>
<path d="M60.9446 210.477C61.6511 194.986 61.8764 186.284 61.793 170.776C61.7431 161.499 62.1923 146.486 60.6951 146.486C58.9483 146.486 56.0038 169.28 54.1572 182.846C51.3194 203.695 49.8153 218.308 48.368 236.413C46.8018 256.005 45.8727 267.885 44.076 286.488C43.7677 289.681 48.1596 284.804 50.7635 283.695C54.1073 282.271 57.6507 286.089 57.6507 280.703C57.6507 264.244 58.7818 249.565 59.8466 229.63C60.2462 222.149 60.6033 217.961 60.9446 210.477Z" fill="#165777"/>
<path d="M92.3842 230.61C90.2509 216.504 88.9675 206.206 85.9783 194.645C82.9892 183.084 75.2179 144.634 71.6551 145.588C68.0922 146.542 66.7968 187.056 68.2003 201.946C69.6038 216.835 70.8994 245.716 70.8994 254.995C70.8994 264.274 72.7708 281.645 74.6421 286.141C76.5134 290.636 82.0965 284.122 86.1582 283.299C90.7035 282.378 95.2342 283.5 97.0265 282.832C99.1603 282.037 96.7631 267.329 95.9111 257.44C95.004 246.911 93.9644 241.059 92.3842 230.61Z" fill="#165777"/>
<path d="M539.237 87.2367C557.78 105.341 587.62 133.777 629.461 148.307C624.093 178.541 613.407 235.391 612.042 244.23C610.336 255.279 605.252 273.824 606.212 291.587C606.886 304.057 616.13 297.736 628.252 299.155C646.169 301.251 652.959 308.853 657.722 317.415C658.139 318.164 659.17 318.804 660.693 319.346C685.235 315.267 699.309 303.746 710.138 289.88C723.174 273.191 727.456 251.875 728.953 238.458C731.108 219.156 729.036 185.807 728.704 152.073C728.423 123.536 731.843 110.097 727.556 79.0042C724.262 55.1136 714.131 35.2629 698.71 21.2976C683.288 7.33228 656.677 -1.17914 609.426 0.698775C589.069 1.50781 572.794 2.69382 557.323 3.29233L554.94 3.35339C544.989 3.57671 515.614 4.015 498.931 4.78861C495.645 4.94101 491.345 5.13775 490.516 5.18116C500.47 27.6163 521.735 70.1478 539.237 87.2367Z" fill="#0B405A"/>
<path fill-rule="evenodd" clip-rule="evenodd" d="M568.669 16.1611C568.669 16.161 568.669 16.1611 567.957 16.3927C567.246 16.6243 567.246 16.6246 567.246 16.6251L567.246 16.6268L567.248 16.6329L567.256 16.6556C567.262 16.6754 567.272 16.7045 567.285 16.7428C567.311 16.8193 567.349 16.9322 567.4 17.0798C567.501 17.3751 567.654 17.8092 567.858 18.3683C568.266 19.4864 568.881 21.1049 569.71 23.1129C571.368 27.1283 573.884 32.7047 577.319 38.9555C584.182 51.4469 594.742 66.6816 609.5 77.5146C627.502 90.7291 646.365 99.4546 660.722 104.876C667.902 107.588 673.959 109.475 678.224 110.684C680.356 111.289 682.041 111.724 683.194 112.009C683.771 112.151 684.214 112.256 684.515 112.325C684.665 112.36 684.78 112.386 684.857 112.403C684.896 112.412 684.925 112.418 684.945 112.422L684.974 112.429L684.975 112.429C684.976 112.429 684.976 112.429 685.134 111.698C685.291 110.966 685.291 110.966 685.291 110.966L685.29 110.966L685.285 110.965L685.265 110.961C685.247 110.957 685.219 110.951 685.182 110.943C685.109 110.926 684.998 110.901 684.851 110.867C684.558 110.8 684.122 110.697 683.553 110.557C682.415 110.276 680.747 109.844 678.632 109.245C674.402 108.045 668.386 106.171 661.251 103.477C646.978 98.0864 628.246 89.4189 610.386 76.3087C595.876 65.657 585.443 50.6323 578.631 38.2353C575.228 32.042 572.735 26.517 571.094 22.5421C570.273 20.555 569.666 18.956 569.264 17.8555C569.064 17.3053 568.914 16.8798 568.815 16.5928C568.766 16.4493 568.729 16.3404 568.705 16.2678C568.693 16.2316 568.684 16.2044 568.678 16.1865L568.671 16.1667L568.67 16.1621L568.669 16.1611Z" fill="#052C3F"/>
<path fill-rule="evenodd" clip-rule="evenodd" d="M640.595 36.2568C640.595 36.2568 640.595 36.2567 639.872 36.4495C639.148 36.6423 639.148 36.6424 639.148 36.6426L639.149 36.6431L639.149 36.6453L639.16 36.6858C639.168 36.7143 639.179 36.7564 639.194 36.8117C639.224 36.9222 639.268 37.085 639.326 37.2953C639.441 37.7157 639.61 38.3257 639.825 39.0851C640.254 40.6038 640.868 42.7212 641.605 45.1164C643.076 49.8988 645.047 55.8187 647.027 60.2912C648.993 64.7319 652.025 70.1343 654.555 74.4105C655.822 76.5521 656.967 78.4179 657.795 79.7484C658.209 80.4137 658.544 80.9454 658.776 81.3111C658.892 81.4939 658.982 81.6352 659.043 81.731C659.074 81.7789 659.097 81.8154 659.113 81.84L659.137 81.877L659.137 81.8775C659.137 81.8776 659.137 81.8777 659.767 81.4731C660.397 81.0686 660.397 81.0685 660.396 81.0685L660.374 81.0329C660.358 81.0089 660.335 80.9731 660.305 80.9259C660.245 80.8316 660.156 80.6917 660.041 80.5104C659.811 80.1479 659.478 79.6196 659.066 78.958C658.243 77.6347 657.104 75.7788 655.844 73.6489C653.319 69.382 650.324 64.0421 648.396 59.6858C646.454 55.2984 644.504 49.4488 643.036 44.6767C642.303 42.2946 641.693 40.1885 641.265 38.678C641.052 37.9229 640.884 37.3168 640.77 36.8999C640.713 36.6914 640.669 36.5303 640.639 36.4214C640.625 36.367 640.613 36.3256 640.606 36.298L640.595 36.2568Z" fill="#052C3F"/>
<path fill-rule="evenodd" clip-rule="evenodd" d="M679.284 131.581C679.284 131.58 679.284 131.58 678.549 131.72C677.813 131.859 677.813 131.859 677.813 131.86L677.818 131.883C677.821 131.899 677.825 131.923 677.831 131.956C677.843 132.02 677.861 132.116 677.885 132.243C677.932 132.497 678.002 132.874 678.092 133.367C678.271 134.353 678.53 135.799 678.849 137.643C679.486 141.329 680.362 146.601 681.314 152.941C683.218 165.623 685.428 182.568 686.652 199.639C687.541 212.039 687.82 227.966 687.876 240.805C687.904 247.222 687.876 252.862 687.842 256.899C687.824 258.917 687.805 260.534 687.79 261.646C687.783 262.202 687.777 262.632 687.772 262.923C687.77 263.069 687.768 263.179 687.767 263.253L687.765 263.365C687.765 263.365 687.765 263.365 688.514 263.378C689.262 263.391 689.262 263.391 689.262 263.39L689.264 263.278C689.265 263.203 689.267 263.092 689.269 262.946C689.274 262.654 689.28 262.223 689.287 261.666C689.302 260.552 689.321 258.933 689.339 256.912C689.374 252.87 689.401 247.223 689.373 240.798C689.317 227.954 689.039 211.985 688.145 199.532C686.917 182.409 684.702 165.422 682.794 152.719C681.84 146.367 680.963 141.083 680.324 137.388C680.005 135.54 679.745 134.089 679.565 133.099C679.475 132.605 679.405 132.225 679.357 131.969C679.333 131.841 679.315 131.744 679.303 131.679C679.297 131.647 679.292 131.622 679.289 131.605L679.284 131.581Z" fill="#052C3F"/>
<path fill-rule="evenodd" clip-rule="evenodd" d="M514.989 11.9932C514.989 11.9932 514.989 11.9934 514.264 12.1791C513.539 12.3647 513.539 12.3652 513.539 12.3658L513.539 12.3678L513.541 12.3744L513.545 12.3876L513.547 12.3979C513.553 12.4181 513.561 12.4475 513.571 12.4858C513.592 12.5626 513.623 12.6752 513.666 12.8224C513.751 13.1168 513.881 13.5495 514.063 14.1102C514.427 15.2314 514.999 16.8643 515.832 18.9246C517.498 23.0453 520.211 28.8768 524.404 35.7464C532.792 49.4873 547.102 67.3774 570.801 84.0348C598.078 103.207 624.215 111.86 643.541 115.72C653.203 117.649 661.164 118.381 666.714 118.629C669.49 118.754 671.663 118.757 673.145 118.729C673.886 118.716 674.455 118.694 674.84 118.676C675.032 118.666 675.179 118.658 675.278 118.652C675.328 118.649 675.366 118.646 675.391 118.645C675.404 118.644 675.414 118.643 675.421 118.643L675.431 118.642C675.432 118.642 675.433 118.642 675.377 117.896C675.321 117.15 675.321 117.15 675.321 117.15L675.32 117.15L675.314 117.15L675.31 117.15C675.305 117.151 675.298 117.151 675.289 117.152C675.267 117.153 675.232 117.156 675.186 117.159C675.094 117.164 674.954 117.172 674.769 117.181C674.398 117.199 673.843 117.22 673.117 117.233C671.664 117.261 669.523 117.257 666.781 117.135C661.297 116.889 653.413 116.165 643.834 114.253C624.676 110.427 598.741 101.844 571.662 82.8109C548.149 66.2839 533.975 48.5521 525.682 34.9672C521.535 28.1739 518.859 22.4165 517.22 18.3641C516.401 16.3379 515.841 14.7381 515.487 13.6483C515.31 13.1035 515.185 12.6861 515.104 12.4068C515.064 12.2672 515.035 12.162 515.016 12.0927C515.006 12.058 514.999 12.0323 514.995 12.0157L514.99 11.9976L514.989 11.9938L514.989 11.9932Z" fill="#052C3F"/>
<path fill-rule="evenodd" clip-rule="evenodd" d="M674.674 131.614C674.674 131.614 674.674 131.614 673.932 131.716C673.19 131.818 673.19 131.818 673.19 131.818L673.199 131.881C673.205 131.922 673.213 131.984 673.224 132.066C673.247 132.229 673.279 132.471 673.322 132.783C673.406 133.408 673.528 134.317 673.678 135.451C673.979 137.72 674.392 140.891 674.841 144.503C675.742 151.728 676.789 160.705 677.381 167.732C677.902 173.915 678.346 181.853 678.659 188.251C678.816 191.449 678.94 194.26 679.025 196.272C679.068 197.277 679.101 198.083 679.123 198.637C679.134 198.915 679.142 199.129 679.148 199.274C679.151 199.346 679.153 199.401 679.154 199.438L679.156 199.494C679.156 199.494 679.156 199.494 679.904 199.466C680.652 199.437 680.652 199.437 680.652 199.437L680.65 199.381C680.649 199.344 680.647 199.288 680.644 199.216C680.638 199.07 680.63 198.856 680.619 198.578C680.597 198.023 680.564 197.216 680.521 196.209C680.436 194.195 680.312 191.38 680.155 188.178C679.841 181.776 679.396 173.816 678.873 167.606C678.278 160.548 677.228 151.547 676.327 144.318C675.877 140.702 675.463 137.526 675.163 135.255C675.012 134.119 674.89 133.209 674.805 132.583C674.763 132.27 674.73 132.028 674.708 131.864C674.697 131.782 674.688 131.719 674.682 131.678L674.674 131.614Z" fill="#052C3F"/>
<path fill-rule="evenodd" clip-rule="evenodd" d="M706.648 110.461C706.649 110.461 706.649 110.461 706.422 109.748C706.195 109.035 706.195 109.035 706.195 109.035L706.101 109.065C706.039 109.084 705.947 109.113 705.83 109.15C705.596 109.224 705.259 109.33 704.847 109.46C704.022 109.719 702.897 110.07 701.696 110.438C699.282 111.18 696.601 111.98 695.415 112.258C694.533 112.464 693.293 113.126 691.968 113.93C690.612 114.754 689.064 115.791 687.535 116.828C687.282 117 687.029 117.172 686.777 117.343C685.504 118.208 684.266 119.049 683.168 119.754C681.829 120.613 680.777 121.218 680.147 121.438C678.694 121.945 676.798 123.055 674.995 124.175C674.399 124.545 673.812 124.917 673.247 125.275C672.063 126.026 670.974 126.716 670.101 127.2C669.592 127.482 668.746 127.644 667.603 127.719C666.702 127.778 665.704 127.78 664.666 127.782C664.413 127.782 664.158 127.783 663.901 127.784C662.613 127.79 661.29 127.818 660.146 127.99C659.031 128.157 657.924 128.483 657.211 129.212C656.425 130.016 655.78 130.912 655.193 131.728C654.965 132.044 654.746 132.349 654.531 132.631C653.735 133.675 652.922 134.531 651.721 135.078C650.186 135.779 647.523 136.479 644.748 137.182C644.529 137.238 644.31 137.293 644.091 137.349C641.583 137.983 639.07 138.618 637.504 139.243C635.288 140.127 633.13 142.358 631.578 144.254C630.788 145.219 630.128 146.131 629.665 146.802C629.434 147.137 629.251 147.413 629.126 147.606C629.063 147.703 629.015 147.779 628.982 147.831C628.965 147.857 628.953 147.878 628.944 147.891L628.934 147.908L628.931 147.912L628.93 147.914C628.93 147.914 628.93 147.914 629.567 148.307C630.204 148.7 630.204 148.7 630.204 148.7L630.204 148.699L630.206 148.697L630.214 148.684C630.221 148.672 630.232 148.654 630.247 148.63C630.277 148.583 630.323 148.512 630.382 148.421C630.501 148.238 630.675 147.974 630.898 147.651C631.344 147.004 631.979 146.127 632.737 145.201C634.281 143.315 636.231 141.362 638.059 140.632C639.527 140.046 641.943 139.435 644.499 138.789C644.704 138.737 644.91 138.685 645.116 138.633C647.839 137.942 650.657 137.209 652.343 136.439C653.874 135.741 654.869 134.657 655.722 133.538C655.988 133.189 656.235 132.846 656.478 132.508C657.039 131.727 657.579 130.977 658.282 130.258C658.634 129.897 659.316 129.628 660.369 129.469C661.393 129.316 662.616 129.287 663.908 129.28C664.152 129.279 664.399 129.278 664.646 129.278C665.687 129.276 666.747 129.275 667.701 129.212C668.86 129.136 670.003 128.966 670.827 128.509C671.74 128.003 672.892 127.272 674.101 126.507C674.656 126.155 675.224 125.795 675.785 125.446C677.61 124.313 679.369 123.294 680.641 122.85C681.464 122.563 682.662 121.857 683.977 121.013C685.093 120.296 686.351 119.442 687.624 118.577C687.874 118.407 688.125 118.236 688.376 118.066C689.907 117.028 691.426 116.01 692.745 115.209C694.095 114.389 695.141 113.858 695.756 113.714C697.003 113.423 699.74 112.604 702.136 111.869C703.34 111.499 704.468 111.147 705.295 110.887C705.708 110.758 706.047 110.651 706.282 110.577C706.399 110.54 706.491 110.511 706.553 110.491L706.648 110.461Z" fill="#052C3F"/>
<path d="M572.348 100.59C584.129 111.502 588.955 114.22 599.978 122.457C608.853 129.089 625.041 136.711 623.079 138.928C620.626 141.699 611.707 135.238 605.309 131.198C595.274 124.86 586.679 120.097 574.752 111.419C563.706 103.382 559.108 98.5702 554.961 94.7051C548.149 88.3548 539.886 77.2508 542.801 74.1955C546.977 69.8192 553.323 77.6778 557.261 82.7267C561.303 87.9081 565.649 94.3843 572.348 100.59Z" fill="#165777"/>
<path d="M651.301 237.925C650.957 232.811 649.382 209.894 649.275 198.099C649.168 186.304 648.031 148.362 649.986 148.362C651.55 148.362 656.191 180.674 657.132 190.461C658.073 200.248 660.941 220.055 661.469 228.119C661.996 236.183 665.635 280.859 666.339 286.135C666.78 289.44 664.165 286.148 660.687 284.287C658.613 283.177 656.169 283.685 654.288 283.506C652.048 283.292 653.221 276.151 652.724 266.168C652.36 258.88 651.835 245.847 651.301 237.925Z" fill="#165777"/>
<path d="M618.95 232.539C621.057 218.605 622.325 208.433 625.278 197.012C628.23 185.592 635.907 147.611 639.426 148.554C642.946 149.496 642.896 189.126 641.51 203.834C640.124 218.543 640.186 243.383 640.186 252.549C640.186 261.715 638.132 278.646 636.284 283.087C634.435 287.528 627.857 281.498 623.845 280.684C619.355 279.774 616.661 281.344 614.89 280.684C612.782 279.899 614.624 268.811 615.466 259.042C616.362 248.642 617.389 242.861 618.95 232.539Z" fill="#165777"/>
<defs>
<linearGradient id="paint0_linear_803:3045" x1="365.03" y1="0" x2="365.03" y2="322" gradientUnits="userSpaceOnUse">
<stop stop-color="#310538"/>
<stop offset="0.835826" stop-color="#571847"/>
</linearGradient>
</defs>
</svg>
